# xmcd CD database file
#
# Track frame offsets:
#	150
#	14441
#	31814
#	53274
#	66654
#	85787
#	102136
#	125940
#	138534
#	151758
#	166572
#	186503
#	202842
#	215207
#	225814
#
# Disc length: 3218 seconds
#
# Revision: 2
# Processed by: cddbd v1.5.2PL0 Copyright (c) Steve Scherf et al.
# Submitted via: CDex 1.51
#
DISCID=c20c900f
DTITLE=Big House Blues Band - Radio Only Promo
DYEAR=2007
DGENRE=Blues
TTITLE0=Pay The Cost To Be The Boss (Live)
TTITLE1=Chain Of Fools
TTITLE2=Whole Dog (Live)
TTITLE3=La Grange
TTITLE4=Turn Me On (Live)
TTITLE5=Hug And Squeeze You (Live)
TTITLE6=While My Guitar Gently Weeps
TTITLE7=I've Got Papers On You (Live)
TTITLE8=She Likes To Boogie, Real Low
TTITLE9=I've Got My Mojo Working (Live)
TTITLE10=Right To Be Wrong
TTITLE11=Talk Real Slow (Live)
TTITLE12=That's Who I Am
TTITLE13=Get A Little (Live)
TTITLE14=Gimme Some Loving (Live)
EXTD=YEAR: 2007
EXTT0=
EXTT1=
EXTT2=
EXTT3=
EXTT4=
EXTT5=
EXTT6=
EXTT7=
EXTT8=
EXTT9=
EXTT10=
EXTT11=
EXTT12=
EXTT13=
EXTT14=
PLAYORDER=
